PathFileType	4	(X/Y/Z)	/home/abdul/Desktop/myosuite/custom_workspace/IK/output/S16_12_2.trc
DataRate	CameraRate	NumFrames	NumMarkers	Units	OrigDataRate	OrigDataStartFrame	OrigNumFrames
200.0	200.0	56	3	mm	200.0	321	1280
Frame#	Time	V_Shoulder			V_Elbow			V_Wrist		
		X1	Y1	Z1	X2	Y2	Z2	X3	Y3	Z3

321	1.6	-106.07432941549713	547.6958693125977	296.0694409344244	-241.58668809681214	407.1836748704578	55.51700387794934	-112.97182909378954	183.95364105896297	40.71794987458395
322	1.605	-106.13534766446337	547.809735303575	296.0781927194475	-241.67048292421165	407.32019019645804	55.48590603503408	-112.77572664852141	184.39798780644816	41.34585239024865
323	1.61	-106.20014824155562	547.933402379458	296.08778689739023	-241.75835780360472	407.4672145220302	55.452059400323385	-112.58130207093193	184.8718710349111	42.01582877039007
324	1.615	-106.26875096305747	548.0669438862891	296.09824658426675	-241.85020104908278	407.6247432088203	55.41542839004258	-112.38853918273651	185.37578114955267	42.728489099838
325	1.62	-106.34117291143492	548.210427857838	296.10959478467004	-241.9458913955483	407.79275359210123	55.375985675328586	-112.1974248242465	185.9101755125347	43.48439549921517
326	1.625	-106.41742830442615	548.3639167726707	296.1218543963452	-242.045298234773	407.9712048194532	55.33371245562602	-112.00794923072426	186.47547701628145	44.284060259993836
327	1.63	-106.49752836807166	548.5274673204802	296.13504821420344	-242.14828188341505	408.1600377404447	55.28859870582626	-111.82010639565902	187.07207272985013	45.12794408863713
328	1.635	-106.58148121417805	548.701130178274	296.14919893352027	-242.2546938822181	408.35917484794334	55.240643396061174	-111.63389441866366	187.70031262320526	46.0164544663041
329	1.64	-106.66929172269943	548.8849497969842	296.1643291520692	-242.3643773255001	408.56852027149637	55.189854683191086	-111.44931583578048	188.36050837404554	46.94994413022856
330	1.645	-106.76096142950895	549.0789641990463	296.18046137095035	-242.4771672199266	408.78795982303313	55.13625007315906	-111.26637793008115	189.0529322616261	47.92870968248455
331	1.65	-106.856488420021	549.283204787455	296.1976179938854	-242.59289087145396	409.01736109494857	55.07985655352043	-111.08509302055226	189.77781615179222	48.95299033142678
332	1.655	-106.95586722910853	549.4976961667866	296.2158213247621	-242.71136829921994	409.25657361043204	55.0207106955965	-110.905478727374	190.5353505771932	50.02296677064429
333	1.66	-107.05908874774498	549.7224559766315	296.23509356322444	-242.83241267505628	409.50542902570953	54.95885872584383	-110.7275582118215	191.3256839163795	51.1387601997926
334	1.665	-107.16614013678048	549.9574947378654	296.2554567981217	-242.9558307871989	409.7637413836723	54.89435656617458	-110.55136038915013	192.14892167520225	52.30043149117553
335	1.67	-107.27700474824339	550.2028157121357	296.276932998642	-243.08142352667647	410.0313074181686	54.827269843108056	-110.3769201129627	193.00512587363178	53.50798050543454
336	1.675	-107.39166205453596	550.4584147749218	296.2995440029768	-243.20898639476857	410.30790690804463	54.757673865778685	-110.20427832970032	193.8943145407943	54.76134555917465
337	1.68	-107.51008758587052	550.7242803024782	296.3233115043792	-243.33831002984064	410.5933030798284	54.68565357296909	-110.03348220204768	194.8164613206913	56.060403046812525
338	1.685	-107.63225287626796	551.0003930729432	296.3482570344966	-243.4691807517851	410.88724305776384	54.6113034494789	-109.86458520019647	195.77149519071975	57.40496721837836
339	1.69	-107.75812541841447	551.2867261818521	296.3744019438819	-243.6013811222259	411.1894583597241	54.534727412279146	-109.69764716006898	196.75930029474904	58.79479011444009
340	1.695	-107.8876686276463	551.5832449722596	296.4017673796027	-243.7346905185788	411.49966543735246	54.45603866703782	-109.53273430776342	197.77971589213956	60.22956165875036
341	1.7	-108.02084181530363	551.8899069796365	296.4303742598936	-243.86888572000277	411.81756625861533	54.37535953573375	-109.36991924964641	198.83253642370482	61.70890990864446
342	1.705	-108.15760017166554	552.2066618916671	296.46024324581373	-244.00374150322628	412.1428489307875	54.292821256202096	-109.20928092768291	199.9175116952267	63.23240146264618
343	1.71	-108.29789475864966	552.5334515230348	296.49139470989746	-244.1390312461903	412.47518836173805	54.2085637545754	-109.05090453975879	201.0343471787379	64.79954202416872
344	1.715	-108.44167251242705	552.870209805244	296.5238487018042	-244.27452753741508	412.81424695724195	54.122735391698484	-108.89488142491831	202.18270443137794	66.40977711963355
345	1.72	-108.5888762560735	553.2168627914874	296.55762491099665	-244.410002788971	413.15967535190896	54.035492684702135	-108.7413089136032	203.36220163122326	68.06249296877394
346	1.725	-108.7394447223458	553.5733286765297	296.5927426264991	-244.54522985091631	413.5111131711977	53.9470000050199	-108.59029014314564	204.57241422908112	69.75701750434372
347	1.73	-108.89331258663857	553.939517831538	296.6292206938072	-244.67998262505415	413.86818982187225	53.857429254223206	-108.44193383892869	205.81287571482446	71.49262153791916
348	1.735	-109.05041051014626	554.3153328537492	296.6670774690431	-244.8140366758614	414.2305253081595	53.766959519132165	-108.29635406178863	207.08307849643555	73.26852006796432
349	1.74	-109.21066519321953	554.7006686308347	296.7063307704702	-244.94716983644855	414.5977310707766	53.67577670773249	-108.15366992238975	208.3824748895177	75.0838737258306
350	1.745	-109.37399943887505	555.0954124197721	296.7469978275014	-245.0791628074276	414.9694108459271	53.58407316749212	-108.0140052634557	209.71047821463105	76.9377903548817
351	1.75	-109.54033222638236	555.4994439400085	296.78909522735466	-245.20979974658877	415.34516154129835	53.49204728772487	-107.8774883108895	211.06646399941042	78.8293267174775
352	1.755	-109.70957879482053	555.912635480655	296.8326388595281	-245.33886884732192	415.72457412605195	53.399903087691406	-107.74425129495846	212.449771282033	80.75749032411733
353	1.76	-109.88165073646378	556.3348520214251	296.8776438582852	-245.46616290375962	416.10723453175757	53.30784979216117	-107.6144300428576	213.85970401222363	82.72124137863477
354	1.765	-110.05645609982325	556.7659513669876	296.9241245433573	-245.59147986067097	416.492724561208	53.21610139618125	-107.48816354409826	215.295532545614	84.71949483295674
355	1.77	-110.23389950214134	557.2057842943742	296.9720943590862	-245.71462334619267	416.88062280204264	53.124876220810165	-107.36559349029311	216.75649522691697	86.75112254458733
356	1.775	-110.41388225110319	557.6541947130542	297.0215658122439	-245.8354031855515	417.2705055421168	53.03439646157649	-107.24686379102809	218.241800057031	88.8149555296567
357	1.78	-110.59630247550042	558.1110198372481	297.07255040878255	-245.95363589400733	417.661947683575	52.944887731413196	-107.13212006762336	219.75062643886486	90.90978630408469
358	1.785	-110.78105526455194	558.576090370034	297.1250585897758	-246.06914514732645	418.0545236526225	52.85657859979977	-107.02150912668833	221.28212699636003	93.03437130515141
359	1.79	-110.96803281555952	559.0492306987619	297.1790996668263	-246.18176222818514	418.4478083020358	52.769700129815256	-106.91517841547228	222.83542946089707	95.18743338554201
360	1.795	-111.15712458954754	559.530259101274	297.2346817572248	-246.2913264469985	418.84137780352	52.684485414766684	-106.81327546109937	224.4096386189999	97.36766437174197
361	1.8	-111.34821747450992	560.0189879623963	297.29181171914917	-246.39768553577156	419.23481052708803	52.60116911600945	-106.71594729585559	226.0038383149999	99.57372767850097
362	1.805	-111.5411959558636	560.5152240001495	297.35049508720493	-246.50069601367665	419.6276879047291	52.51998700351937	-106.62333987076573	227.61709350209446	101.80426097096063
363	1.81	-111.73594229368206	561.0187685011017	297.41073600860767	-246.60022352317495	420.0195952757281	52.441175500710514	-106.53559745975909	229.24845233502776	104.05787886595158
364	1.815	-111.93233670626273	561.5294175642694	297.47253718031567	-246.69614313561738	420.4101227111088	52.36497123492005	-106.45286205677537	230.89694829744252	106.33317566390991
365	1.82	-112.13025755955874	562.0469623529513	297.53589978742025	-246.7883396253821	420.7988658147932	52.29161059490025	-106.37527276820433	232.56160235679494	108.62872810284107
366	1.825	-112.32958156198829	562.571189353869	297.6008234431028	-246.87670771173137	421.1854264991969	52.22132929657069	-106.30296520308642	234.24142513959828	110.94309812577117
367	1.83	-112.53018396411566	563.1018806429685	297.6673061304668	-246.96115226769996	421.56941373312	52.154361958189966	-106.23607086352547	235.93541911965775	113.27483565316902
368	1.835	-112.73193876268324	563.6388141572305	297.73534414654756	-247.04158849545837	421.9504442599371	52.090941686007454	-106.17471653777879	237.64258081188763	115.62248135189861
369	1.84	-112.93471890845882	564.1817639718224	297.80493204880315	-247.11794206772853	422.32814328424627	52.03129967135196	-106.11902369849469	239.36190296425605	117.98456939236856
370	1.845	-113.13839651735032	564.7305005819222	297.87606260437786	-247.19014923496385	422.7021451252935	51.97566480000684	-106.06910790856293	241.09237674038798	120.35963018568206
371	1.85	-113.342843084229	565.2847911885325	297.94872674242845	-247.25815689814146	423.07209383565714	51.92426327461038	-106.02507823702935	242.83299388536977	122.74619309275741
372	1.855	-113.54792969889404	565.8443999876049	298.0229135097896	-247.32192264715044	423.43764378384276	51.87731825070777	-105.98703668750198	244.58274886734497	125.14278909758245
373	1.86	-113.75352726360347	566.4090884617921	298.0986100302483	-247.3814147648952	423.7984601996152	51.83504948696623	-105.95507764144344	246.34064098756104	127.54795343698817
374	1.865	-113.95950671159221	566.9786156741401	298.1758014676834	-247.43661219736794	424.15421968107097	51.79767300995023	-105.92928731870138	248.1056764516337	129.9602281795718
375	1.87	-114.16573922599353	567.5527385630451	298.2544709933139	-247.48750449007585	424.5046106626271	51.76540079373916	-105.90974325757797	249.87687039492596	132.37816474667065
376	1.875	-114.37209645858012	568.1312122377918	298.3345997572872	-247.53409169134045	424.84933384328633	51.73844045455564	-105.89651381667815	251.65324885510393	134.80032636858
